<svg width="185" height="147" xmlns="http://www.w3.org/2000/svg">

 <g>
  <title>Layer 1</title>
  <path id="svg_1" fill="#FF4D9C" d="m111.21,28.0424c5.156,7.0614 -1.672,18.2089 2.653,25.808c2.874,5.0499 10.435,4.6823 15.87,6.7382c17.578,6.6497 41.27,3.941 52.397,19.0868c7.279,9.908 -3.739,26.3856 -13.467,33.9036c-10.553,8.157 -25.929,9.252 -39.012,6.657c-11.969,-2.373 -19.171,-26.0395 -29.9571,-20.3336c-14.7589,7.8076 -4.5993,36.6996 -18.4904,45.9636c-8.2856,5.526 -13.8345,-15.354 -23.4352,-18.002c-15.0813,-4.161 -49.51914,14.067 -46.404,-1.265c4.9931,-24.574 59.9536,-23.582 56.4991,-48.4198c-3.408,-24.503 -59.12707,-5.9457 -67.30782,-29.2929c-6.18409,-17.6488 40.99492,6.9929 55.25432,-5.1065c10.8912,-9.2413 -11.424,-34.83453 0.7061,-42.37655c11.4318,-7.10791 22.0606,14.80185 34.1628,20.69635c6.4759,3.1542 16.2832,0.1254 20.5312,5.9428z"/>
 </g>
</svg>