<svg width="168" height="174" xmlns="http://www.w3.org/2000/svg">

 <g>
  <title>Layer 1</title>
  <path id="svg_1" fill="#FFBBE1" d="m58.4418,6.83731c11.1976,-7.37612 32.1703,-9.59109 39.7597,1.46309c12.6185,18.3791 0.3988,44.3778 6.4455,65.836c1.274,4.5228 8.821,2.7639 13.292,4.2091c8.354,2.7 21.143,0.0918 24.761,8.0904c3.213,7.1034 -14.997,12.3627 -12.215,19.6451c6.983,18.279 35.078,25.374 36.858,44.86c1.151,12.602 -18.692,25.163 -30.799,21.48c-19.302,-5.871 -24.788,-31.716 -41.2406,-43.394c-4.0354,-2.864 -9.1877,3.477 -14.0947,4.117c-6.4346,0.84 -12.7644,0.303 -19.2531,0.234c-13.7312,-0.147 -28.6189,5.585 -40.7364,-0.875c-10.8588,-5.789 -25.87415,-20.743 -19.18153,-31.069c9.94813,-15.3496 40.61993,-3.2453 51.12533,-18.219c7.5756,-10.7977 -13.1775,-24.0068 -12.268,-37.1655c0.9982,-14.4435 5.4563,-31.2479 17.5468,-39.21219z"/>
 </g>
</svg>